
        <svg xmlns="http://www.w3.org/2000/svg" xmlns:xlink="http://www.w3.org/1999/xlink" version="1.1" width="3147.783251231527" 
        height="827.5862068965517" viewBox="0 0 3147.783251231527 827.5862068965517">
			
			<g transform="scale(7.389162561576355) translate(10, 10)">
				<defs id="SvgjsDefs38250"><linearGradient id="SvgjsLinearGradient38259"><stop id="SvgjsStop38260" stop-color="#b98947" offset="0"></stop><stop id="SvgjsStop38261" stop-color="#faf0a1" offset="1"></stop></linearGradient><linearGradient id="SvgjsLinearGradient38262"><stop id="SvgjsStop38263" stop-color="#b98947" offset="0"></stop><stop id="SvgjsStop38264" stop-color="#faf0a1" offset="1"></stop></linearGradient><linearGradient id="SvgjsLinearGradient38265"><stop id="SvgjsStop38266" stop-color="#b98947" offset="0"></stop><stop id="SvgjsStop38267" stop-color="#faf0a1" offset="1"></stop></linearGradient></defs><g id="SvgjsG38251" featureKey="Rs8Ttr-0" transform="matrix(0.6305170765330189,0,0,0.6305170765330189,-2.7112235493535697,14.88524528915956)" fill="url(#SvgjsLinearGradient38259)"><g xmlns="http://www.w3.org/2000/svg"><path d="M30,46.7c-0.7-1.7-0.7-1.7-1.4-3.5l-2.7,0.1c-0.2-0.2-0.4-0.4-0.6-0.6l11.1-11.1l-0.2,1.1c0.8,0.4,0.8,0.4,1.7,0.9l1-0.9   c0.6,0.1,0.9,0.1,1.5,0.1l0.8,1.1c0.9-0.3,0.9-0.3,1.8-0.6l0-0.8l11.3,10.3l-1.5-0.2c-0.6,1.1-0.6,1.1-1.1,2.1l1.1,1.2   c-0.1,0.7-0.1,1.1-0.2,1.9l-1.3,1c0.4,1.1,0.4,1.1,0.7,2.3l1.7,0.1c0.5,0.6,0.7,0.9,1.2,1.4l-0.2,1.7c1.1,0.6,1.1,0.6,2.1,1.1   l1.2-1.1c0.7,0.1,1.1,0.1,1.9,0.2l1,1.3c1.1-0.4,1.1-0.4,2.3-0.7l0.1-1.7c0.6-0.5,0.9-0.7,1.4-1.2l1.7,0.2c0.6-1.1,0.6-1.1,1.1-2.1   l-1.1-1.2c0.1-0.7,0.1-1.1,0.2-1.9l1.3-1c-0.4-1.1-0.4-1.1-0.7-2.3l-1.7-0.1c-0.5-0.6-0.7-0.9-1.2-1.4l0.2-1.7   c-1.1-0.6-1.1-0.6-2.1-1.1l-1.2,1.1c-0.7-0.1-1.1-0.1-1.9-0.2l-1-1.3c-1.1,0.4-1.1,0.4-2.3,0.7l-0.1,1.6L44.4,31.1l1.1,0.2   c0.4-0.8,0.4-0.8,0.9-1.7l-0.9-1c0.1-0.6,0.1-0.9,0.1-1.5l1.1-0.8c-0.3-0.9-0.3-0.9-0.6-1.8l-1.3,0c-0.4-0.5-0.6-0.7-1-1.1L44,22   c-0.8-0.4-0.8-0.4-1.7-0.9l-1,0.9c-0.6-0.1-0.9-0.1-1.5-0.1l-0.8-1.1c-0.9,0.3-0.9,0.3-1.8,0.6l0,1.3c-0.5,0.4-0.7,0.6-1.1,1   l-1.3-0.2c-0.4,0.8-0.4,0.8-0.9,1.7l0.9,1c-0.1,0.6-0.1,0.9-0.1,1.5l-1.1,0.8c0.3,0.9,0.3,0.9,0.6,1.8l0.8,0L23.9,41.3   c0,0-0.1-0.1-0.1-0.1l0.1-2.7c-1.7-0.7-1.7-0.7-3.5-1.4l-1.8,2c-1.2,0-1.8,0-3,0l-1.8-2c-1.7,0.7-1.7,0.7-3.5,1.4l0.1,2.7   c-0.8,0.8-1.3,1.3-2.1,2.1l-2.7-0.1C5,44.9,5,44.9,4.3,46.7l2,1.8c0,1.2,0,1.8,0,3l-2,1.8C5,55,5,55,5.8,56.7l2.7-0.1   c0.8,0.8,1.3,1.3,2.1,2.1l-0.1,2.7c1.7,0.7,1.7,0.7,3.5,1.4l1.8-2c1.2,0,1.8,0,3,0l1.8,2c1.7-0.7,1.7-0.7,3.5-1.4l-0.1-2.7   c0.8-0.8,1.3-1.3,2.1-2.1l2.7,0.1c0.7-1.7,0.7-1.7,1.4-3.5l-2-1.8c0-1.2,0-1.8,0-3L30,46.7z M60,42.8c2.7,0.2,4.6,2.6,4.4,5.2   c-0.2,2.7-2.6,4.6-5.2,4.4c-2.7-0.2-4.6-2.6-4.4-5.2C55,44.5,57.4,42.5,60,42.8z M17.2,57.6c-4.2,0-7.6-3.4-7.6-7.6   s3.4-7.6,7.6-7.6s7.6,3.4,7.6,7.6S21.4,57.6,17.2,57.6z"></path><path d="M93.7,48.6l2-1.8C95,45,95,45,94.2,43.3l-2.7,0.1c-0.8-0.8-1.3-1.3-2.1-2.1l0.1-2.7c-1.7-0.7-1.7-0.7-3.5-1.4l-1.8,2   c-1.2,0-1.8,0-3,0l-1.8-2c-1.7,0.7-1.7,0.7-3.5,1.4l0.1,2.7c-0.8,0.8-1.3,1.3-2.1,2.1l-2.7-0.1C70.7,45,70.7,45,70,46.8l2,1.8   c0,1.2,0,1.8,0,3l-2,1.8c0.7,1.7,0.7,1.7,1.4,3.5l2.7-0.1c0.2,0.2,0.4,0.4,0.6,0.6L63.6,68.4l0.2-1.1c-0.8-0.4-0.8-0.4-1.7-0.9   l-1,0.9c-0.6-0.1-0.9-0.1-1.5-0.1l-0.8-1.1c-0.9,0.3-0.9,0.3-1.8,0.6l0,0.8L45.7,57.1l1.5,0.2c0.6-1.1,0.6-1.1,1.1-2.1L47.2,54   c0.1-0.7,0.1-1.1,0.2-1.9l1.3-1C48.3,50,48.3,50,48,48.8l-1.7-0.1c-0.5-0.6-0.7-0.9-1.2-1.4l0.2-1.7c-1.1-0.6-1.1-0.6-2.1-1.1   l-1.2,1.1c-0.7-0.1-1.1-0.1-1.9-0.2l-1-1.3c-1.1,0.4-1.1,0.4-2.3,0.7l-0.1,1.7c-0.6,0.5-0.9,0.7-1.4,1.2l-1.7-0.2   c-0.6,1.1-0.6,1.1-1.1,2.1l1.1,1.2c-0.1,0.7-0.1,1.1-0.2,1.9l-1.3,1c0.4,1.1,0.4,1.1,0.7,2.3l1.7,0.1c0.5,0.6,0.7,0.9,1.2,1.4   l-0.2,1.7c1.1,0.6,1.1,0.6,2.1,1.1l1.2-1.1c0.7,0.1,1.1,0.1,1.9,0.2l1,1.3c1.1-0.4,1.1-0.4,2.3-0.7l0.1-1.6l11.6,10.6l-1.1-0.2   c-0.4,0.8-0.4,0.8-0.9,1.7l0.9,1c-0.1,0.6-0.1,0.9-0.1,1.5l-1.1,0.8c0.3,0.9,0.3,0.9,0.6,1.8l1.3,0c0.4,0.5,0.6,0.7,1,1.1L56,78   c0.8,0.4,0.8,0.4,1.7,0.9l1-0.9c0.6,0.1,0.9,0.1,1.5,0.1l0.8,1.1c0.9-0.3,0.9-0.3,1.8-0.6l0-1.3c0.5-0.4,0.7-0.6,1.1-1l1.3,0.2   c0.4-0.8,0.4-0.8,0.9-1.7l-0.9-1c0.1-0.6,0.1-0.9,0.1-1.5l1.1-0.8c-0.3-0.9-0.3-0.9-0.6-1.8l-0.8,0l11.1-11.1c0,0,0.1,0.1,0.1,0.1   l-0.1,2.7c1.7,0.7,1.7,0.7,3.5,1.4l1.8-2c1.2,0,1.8,0,3,0l1.8,2c1.7-0.7,1.7-0.7,3.5-1.4l-0.1-2.7c0.8-0.8,1.3-1.3,2.1-2.1l2.7,0.1   c0.7-1.7,0.7-1.7,1.4-3.5l-2-1.8C93.7,50.4,93.7,49.8,93.7,48.6z M40,57.2c-2.7-0.2-4.6-2.6-4.4-5.2c0.2-2.7,2.6-4.6,5.2-4.4   c2.7,0.2,4.6,2.6,4.4,5.2C45,55.5,42.6,57.5,40,57.2z M82.8,57.7c-4.2,0-7.6-3.4-7.6-7.6s3.4-7.6,7.6-7.6s7.6,3.4,7.6,7.6   S87.1,57.7,82.8,57.7z"></path></g></g><g id="SvgjsG38252" featureKey="textGroupContainer" transform="matrix(1,0,0,1,405,0)" fill="url(#SvgjsLinearGradient38262)"><rect xmlns="http://www.w3.org/2000/svg" y="0" height="1" width="1" opacity="0"></rect><rect xmlns="http://www.w3.org/2000/svg" y="0" x="-327" width="3" height="92"></rect></g><g id="SvgjsG38253" featureKey="nameFeature-0" transform="matrix(0.9906786065393298,0,0,0.9906786065393298,95.78205044202161,17.571100585356007)" fill="url(#SvgjsLinearGradient38265)"><path d="M11.26 5.84 l0 1.8 l-4.56 0 l0 12.36 l-1.92 0 l0 -12.36 l-4.56 0 l0 -1.8 l11.04 0 z M25.611 5.84 l0 1.8 l-7.22 0 l0 4.22 l6.72 0 l0 1.8 l-6.72 0 l0 4.54 l7.58 0 l0 1.8 l-9.5 0 l0 -14.16 l9.14 0 z M38.362 5.48 c1 0 1.9367 0.18664 2.81 0.55998 s1.59 0.92 2.15 1.64 l-1.6 1.22 c-0.86666 -1.08 -2.0066 -1.62 -3.42 -1.62 c-1.5333 0 -2.7966 0.54666 -3.79 1.64 s-1.49 2.4666 -1.49 4.12 c0 1.6 0.49 2.92 1.47 3.96 s2.25 1.56 3.81 1.56 s2.7934 -0.63334 3.7 -1.9 l1.62 1.22 c-0.56 0.74666 -1.3067 1.3467 -2.24 1.8 s-1.9733 0.68 -3.12 0.68 c-1.36 0 -2.5934 -0.33 -3.7 -0.99 s-1.98 -1.5667 -2.62 -2.72 s-0.96 -2.3634 -0.96 -3.63 c0 -2.1866 0.68666 -3.99 2.06 -5.41 s3.1466 -2.13 5.32 -2.13 z M51.03300000000001 5.84 l0 5.88 l7.34 0 l0 -5.88 l1.92 0 l0 14.16 l-1.92 0 l0 -6.48 l-7.34 0 l0 6.48 l-1.92 0 l0 -14.16 l1.92 0 z M76.004 5.84 l0 1.8 l-6.98 0 l0 4.44 l6.5 0 l0 1.8 l-6.5 0 l0 6.12 l-1.92 0 l0 -14.16 l8.9 0 z M88.255 5.48 c2.1066 0 3.8634 0.69998 5.27 2.1 s2.11 3.18 2.11 5.34 c0 1.3733 -0.31334 2.63 -0.94 3.77 s-1.51 2.0366 -2.65 2.69 s-2.4034 0.98 -3.79 0.98 c-1.3733 0 -2.6266 -0.32334 -3.76 -0.97 s-2.02 -1.54 -2.66 -2.68 s-0.96 -2.4034 -0.96 -3.79 c0 -2.1066 0.69 -3.8734 2.07 -5.3 s3.15 -2.14 5.31 -2.14 z M82.915 12.92 c0 1.6 0.49998 2.94 1.5 4.02 s2.28 1.62 3.84 1.62 c1.5333 0 2.8066 -0.53334 3.82 -1.6 s1.52 -2.4134 1.52 -4.04 c0 -1.6133 -0.5 -2.9566 -1.5 -4.03 s-2.2866 -1.61 -3.86 -1.61 c-1.52 0 -2.7866 0.53334 -3.8 1.6 s-1.52 2.4134 -1.52 4.04 z M106.64600000000002 5.84 c1.3867 0 2.4734 0.34666 3.26 1.04 s1.18 1.6667 1.18 2.92 c0 0.94666 -0.32334 1.7733 -0.97 2.48 s-1.4767 1.1267 -2.49 1.26 l-0.02 0 l4.02 6.46 l-2.4 0 l-3.6 -6.24 l-2.14 0 l0 6.24 l-1.92 0 l0 -14.16 l5.08 0 z M106.08600000000001 12.08 c1 0 1.7433 -0.18336 2.23 -0.55002 s0.73 -0.94332 0.73 -1.73 c0 -1.52 -0.98666 -2.28 -2.96 -2.28 l-2.6 0 l0 4.56 l2.6 0 z M123.47700000000002 5.48 c2.36 0 4.1134 0.6133 5.26 1.84 l-1.36 1.46 c-1.0533 -1 -2.36 -1.5 -3.92 -1.5 s-2.84 0.53666 -3.84 1.61 s-1.5 2.4166 -1.5 4.03 c0 1.6267 0.53 2.9734 1.59 4.04 s2.3634 1.6 3.91 1.6 c1.4667 0 2.6266 -0.24666 3.48 -0.74 l0 -3.94 l-3.14 0 l0 -1.8 l5.06 0 l0 6.98 c-0.69334 0.41334 -1.53 0.73334 -2.51 0.96 s-1.93 0.34 -2.85 0.34 c-2.2266 0 -4.0466 -0.69334 -5.46 -2.08 s-2.12 -3.1734 -2.12 -5.36 c0 -2.1066 0.69666 -3.8734 2.09 -5.3 s3.1634 -2.14 5.31 -2.14 z M144.82800000000003 5.84 l0 1.8 l-7.22 0 l0 4.22 l6.72 0 l0 1.8 l-6.72 0 l0 4.54 l7.58 0 l0 1.8 l-9.5 0 l0 -14.16 l9.14 0 z M163.87 5.48 c1.84 0 3.2 0.54006 4.08 1.6201 l-1.56 1.42 c-0.24 -0.37334 -0.58 -0.67334 -1.02 -0.9 s-0.94666 -0.34 -1.52 -0.34 c-0.82666 0 -1.49 0.20334 -1.99 0.61 s-0.75 0.93 -0.75 1.57 c0 1.0667 0.70666 1.8133 2.12 2.24 l1.78 0.58 c1 0.32 1.7633 0.76666 2.29 1.34 s0.79 1.36 0.79 2.36 c0 1.3067 -0.46334 2.3634 -1.39 3.17 s-2.1034 1.21 -3.53 1.21 c-2.04 0 -3.5466 -0.65334 -4.52 -1.96 l1.58 -1.36 c0.30666 0.48 0.72666 0.85334 1.26 1.12 s1.1133 0.4 1.74 0.4 c0.78666 0 1.4533 -0.22666 2 -0.68 s0.82 -1.0133 0.82 -1.68 c0 -0.49334 -0.16666 -0.90668 -0.5 -1.24 s-0.93334 -0.63334 -1.8 -0.9 l-1.26 -0.42 c-1.2667 -0.42666 -2.1534 -0.97 -2.66 -1.63 s-0.76 -1.51 -0.76 -2.55 c0 -1.1067 0.44666 -2.0466 1.34 -2.82 s2.0466 -1.16 3.46 -1.16 z M180.601 5.48 c2.1066 0 3.8634 0.69998 5.27 2.1 s2.11 3.18 2.11 5.34 c0 1.3733 -0.31334 2.63 -0.94 3.77 s-1.51 2.0366 -2.65 2.69 s-2.4034 0.98 -3.79 0.98 c-1.3733 0 -2.6266 -0.32334 -3.76 -0.97 s-2.02 -1.54 -2.66 -2.68 s-0.96 -2.4034 -0.96 -3.79 c0 -2.1066 0.69 -3.8734 2.07 -5.3 s3.15 -2.14 5.31 -2.14 z M175.261 12.92 c0 1.6 0.49998 2.94 1.5 4.02 s2.28 1.62 3.84 1.62 c1.5333 0 2.8066 -0.53334 3.82 -1.6 s1.52 -2.4134 1.52 -4.04 c0 -1.6133 -0.5 -2.9566 -1.5 -4.03 s-2.2866 -1.61 -3.86 -1.61 c-1.52 0 -2.7866 0.53334 -3.8 1.6 s-1.52 2.4134 -1.52 4.04 z M195.83200000000002 5.84 l0 12.36 l6.5 0 l0 1.8 l-8.42 0 l0 -14.16 l1.92 0 z M209.123 5.84 l0 8.74 c0 1.16 0.32334 2.1134 0.97 2.86 s1.51 1.12 2.59 1.12 s1.9433 -0.37334 2.59 -1.12 s0.97 -1.7 0.97 -2.86 l0 -8.74 l1.92 0 l0 9.06 c0 0.97334 -0.23 1.8833 -0.69 2.73 s-1.1133 1.5133 -1.96 2 s-1.79 0.73 -2.83 0.73 c-1.6 0 -2.9134 -0.52334 -3.94 -1.57 s-1.54 -2.3434 -1.54 -3.89 l0 -9.06 l1.92 0 z M234.154 5.84 l0 1.8 l-4.56 0 l0 12.36 l-1.92 0 l0 -12.36 l-4.56 0 l0 -1.8 l11.04 0 z M241.28500000000003 5.84 l0 14.16 l-1.92 0 l0 -14.16 l1.92 0 z M254.596 5.48 c2.1066 0 3.8634 0.69998 5.27 2.1 s2.11 3.18 2.11 5.34 c0 1.3733 -0.31334 2.63 -0.94 3.77 s-1.51 2.0366 -2.65 2.69 s-2.4034 0.98 -3.79 0.98 c-1.3733 0 -2.6266 -0.32334 -3.76 -0.97 s-2.02 -1.54 -2.66 -2.68 s-0.96 -2.4034 -0.96 -3.79 c0 -2.1066 0.69 -3.8734 2.07 -5.3 s3.15 -2.14 5.31 -2.14 z M249.256 12.92 c0 1.6 0.49998 2.94 1.5 4.02 s2.28 1.62 3.84 1.62 c1.5333 0 2.8066 -0.53334 3.82 -1.6 s1.52 -2.4134 1.52 -4.04 c0 -1.6133 -0.5 -2.9566 -1.5 -4.03 s-2.2866 -1.61 -3.86 -1.61 c-1.52 0 -2.7866 0.53334 -3.8 1.6 s-1.52 2.4134 -1.52 4.04 z M270.42699999999996 5.84 l7.8 11.64 l0.04 0 l0 -11.64 l1.92 0 l0 14.16 l-2.44 0 l-7.88 -11.64 l-0.04 0 l0 11.64 l-1.92 0 l0 -14.16 l2.52 0 z M291.058 5.48 c1.84 0 3.2 0.54006 4.08 1.6201 l-1.56 1.42 c-0.24 -0.37334 -0.58 -0.67334 -1.02 -0.9 s-0.94666 -0.34 -1.52 -0.34 c-0.82666 0 -1.49 0.20334 -1.99 0.61 s-0.75 0.93 -0.75 1.57 c0 1.0667 0.70666 1.8133 2.12 2.24 l1.78 0.58 c1 0.32 1.7633 0.76666 2.29 1.34 s0.79 1.36 0.79 2.36 c0 1.3067 -0.46334 2.3634 -1.39 3.17 s-2.1034 1.21 -3.53 1.21 c-2.04 0 -3.5466 -0.65334 -4.52 -1.96 l1.58 -1.36 c0.30666 0.48 0.72666 0.85334 1.26 1.12 s1.1133 0.4 1.74 0.4 c0.78666 0 1.4533 -0.22666 2 -0.68 s0.82 -1.0133 0.82 -1.68 c0 -0.49334 -0.16666 -0.90668 -0.5 -1.24 s-0.93334 -0.63334 -1.8 -0.9 l-1.26 -0.42 c-1.2667 -0.42666 -2.1534 -0.97 -2.66 -1.63 s-0.76 -1.51 -0.76 -2.55 c0 -1.1067 0.44666 -2.0466 1.34 -2.82 s2.0466 -1.16 3.46 -1.16 z"></path></g><g id="SvgjsG38254" featureKey="7fT3kx-0" transform="matrix(0.7413421883031653,0,0,0.7413421883031653,95.51071462233925,53.937444793958676)" fill="#96969c"><path d="M5.88 5.48 c1.84 0 3.2 0.54006 4.08 1.6201 l-1.56 1.42 c-0.24 -0.37334 -0.58 -0.67334 -1.02 -0.9 s-0.94666 -0.34 -1.52 -0.34 c-0.82666 0 -1.49 0.20334 -1.99 0.61 s-0.75 0.93 -0.75 1.57 c0 1.0667 0.70666 1.8133 2.12 2.24 l1.78 0.58 c1 0.32 1.7633 0.76666 2.29 1.34 s0.79 1.36 0.79 2.36 c0 1.3067 -0.46334 2.3634 -1.39 3.17 s-2.1034 1.21 -3.53 1.21 c-2.04 0 -3.5466 -0.65334 -4.52 -1.96 l1.58 -1.36 c0.30666 0.48 0.72666 0.85334 1.26 1.12 s1.1133 0.4 1.74 0.4 c0.78666 0 1.4533 -0.22666 2 -0.68 s0.82 -1.0133 0.82 -1.68 c0 -0.49334 -0.16666 -0.90668 -0.5 -1.24 s-0.93334 -0.63334 -1.8 -0.9 l-1.26 -0.42 c-1.2667 -0.42666 -2.1534 -0.97 -2.66 -1.63 s-0.76 -1.51 -0.76 -2.55 c0 -1.1067 0.44666 -2.0466 1.34 -2.82 s2.0466 -1.16 3.46 -1.16 z M21.705000000000002 5.48 c2.1066 0 3.8634 0.69998 5.27 2.1 s2.11 3.18 2.11 5.34 c0 1.3733 -0.31334 2.63 -0.94 3.77 s-1.51 2.0366 -2.65 2.69 s-2.4034 0.98 -3.79 0.98 c-1.3733 0 -2.6266 -0.32334 -3.76 -0.97 s-2.02 -1.54 -2.66 -2.68 s-0.96 -2.4034 -0.96 -3.79 c0 -2.1066 0.69 -3.8734 2.07 -5.3 s3.15 -2.14 5.31 -2.14 z M16.365000000000002 12.92 c0 1.6 0.49998 2.94 1.5 4.02 s2.28 1.62 3.84 1.62 c1.5333 0 2.8066 -0.53334 3.82 -1.6 s1.52 -2.4134 1.52 -4.04 c0 -1.6133 -0.5 -2.9566 -1.5 -4.03 s-2.2866 -1.61 -3.86 -1.61 c-1.52 0 -2.7866 0.53334 -3.8 1.6 s-1.52 2.4134 -1.52 4.04 z M36.03000000000001 5.84 l0 12.36 l6.5 0 l0 1.8 l-8.42 0 l0 -14.16 l1.92 0 z M48.415000000000006 5.84 l0 8.74 c0 1.16 0.32334 2.1134 0.97 2.86 s1.51 1.12 2.59 1.12 s1.9433 -0.37334 2.59 -1.12 s0.97 -1.7 0.97 -2.86 l0 -8.74 l1.92 0 l0 9.06 c0 0.97334 -0.23 1.8833 -0.69 2.73 s-1.1133 1.5133 -1.96 2 s-1.79 0.73 -2.83 0.73 c-1.6 0 -2.9134 -0.52334 -3.94 -1.57 s-1.54 -2.3434 -1.54 -3.89 l0 -9.06 l1.92 0 z M72.54 5.84 l0 1.8 l-4.56 0 l0 12.36 l-1.92 0 l0 -12.36 l-4.56 0 l0 -1.8 l11.04 0 z M78.765 5.84 l0 14.16 l-1.92 0 l0 -14.16 l1.92 0 z M91.17000000000002 5.48 c2.1066 0 3.8634 0.69998 5.27 2.1 s2.11 3.18 2.11 5.34 c0 1.3733 -0.31334 2.63 -0.94 3.77 s-1.51 2.0366 -2.65 2.69 s-2.4034 0.98 -3.79 0.98 c-1.3733 0 -2.6266 -0.32334 -3.76 -0.97 s-2.02 -1.54 -2.66 -2.68 s-0.96 -2.4034 -0.96 -3.79 c0 -2.1066 0.69 -3.8734 2.07 -5.3 s3.15 -2.14 5.31 -2.14 z M85.83000000000001 12.92 c0 1.6 0.49998 2.94 1.5 4.02 s2.28 1.62 3.84 1.62 c1.5333 0 2.8066 -0.53334 3.82 -1.6 s1.52 -2.4134 1.52 -4.04 c0 -1.6133 -0.5 -2.9566 -1.5 -4.03 s-2.2866 -1.61 -3.86 -1.61 c-1.52 0 -2.7866 0.53334 -3.8 1.6 s-1.52 2.4134 -1.52 4.04 z M106.09500000000001 5.84 l7.8 11.64 l0.04 0 l0 -11.64 l1.92 0 l0 14.16 l-2.44 0 l-7.88 -11.64 l-0.04 0 l0 11.64 l-1.92 0 l0 -14.16 l2.52 0 z M125.82000000000001 5.48 c1.84 0 3.2 0.54006 4.08 1.6201 l-1.56 1.42 c-0.24 -0.37334 -0.58 -0.67334 -1.02 -0.9 s-0.94666 -0.34 -1.52 -0.34 c-0.82666 0 -1.49 0.20334 -1.99 0.61 s-0.75 0.93 -0.75 1.57 c0 1.0667 0.70666 1.8133 2.12 2.24 l1.78 0.58 c1 0.32 1.7633 0.76666 2.29 1.34 s0.79 1.36 0.79 2.36 c0 1.3067 -0.46334 2.3634 -1.39 3.17 s-2.1034 1.21 -3.53 1.21 c-2.04 0 -3.5466 -0.65334 -4.52 -1.96 l1.58 -1.36 c0.30666 0.48 0.72666 0.85334 1.26 1.12 s1.1133 0.4 1.74 0.4 c0.78666 0 1.4533 -0.22666 2 -0.68 s0.82 -1.0133 0.82 -1.68 c0 -0.49334 -0.16666 -0.90668 -0.5 -1.24 s-0.93334 -0.63334 -1.8 -0.9 l-1.26 -0.42 c-1.2667 -0.42666 -2.1534 -0.97 -2.66 -1.63 s-0.76 -1.51 -0.76 -2.55 c0 -1.1067 0.44666 -2.0466 1.34 -2.82 s2.0466 -1.16 3.46 -1.16 z M149.47 5.48 c2.1066 0 3.8634 0.69998 5.27 2.1 s2.11 3.18 2.11 5.34 c0 1.3733 -0.31334 2.63 -0.94 3.77 s-1.51 2.0366 -2.65 2.69 s-2.4034 0.98 -3.79 0.98 c-1.3733 0 -2.6266 -0.32334 -3.76 -0.97 s-2.02 -1.54 -2.66 -2.68 s-0.96 -2.4034 -0.96 -3.79 c0 -2.1066 0.69 -3.8734 2.07 -5.3 s3.15 -2.14 5.31 -2.14 z M144.13 12.92 c0 1.6 0.49998 2.94 1.5 4.02 s2.28 1.62 3.84 1.62 c1.5333 0 2.8066 -0.53334 3.82 -1.6 s1.52 -2.4134 1.52 -4.04 c0 -1.6133 -0.5 -2.9566 -1.5 -4.03 s-2.2866 -1.61 -3.86 -1.61 c-1.52 0 -2.7866 0.53334 -3.8 1.6 s-1.52 2.4134 -1.52 4.04 z M164.395 5.84 l7.8 11.64 l0.04 0 l0 -11.64 l1.92 0 l0 14.16 l-2.44 0 l-7.88 -11.64 l-0.04 0 l0 11.64 l-1.92 0 l0 -14.16 l2.52 0 z M188.325 5.84 l3.86 6.22 l3.98 -6.22 l2.34 0 l-5.36 8.12 l0 6.04 l-1.92 0 l0 -6.04 l-5.36 -8.12 l2.46 0 z M208.89 5.48 c2.1066 0 3.8634 0.69998 5.27 2.1 s2.11 3.18 2.11 5.34 c0 1.3733 -0.31334 2.63 -0.94 3.77 s-1.51 2.0366 -2.65 2.69 s-2.4034 0.98 -3.79 0.98 c-1.3733 0 -2.6266 -0.32334 -3.76 -0.97 s-2.02 -1.54 -2.66 -2.68 s-0.96 -2.4034 -0.96 -3.79 c0 -2.1066 0.69 -3.8734 2.07 -5.3 s3.15 -2.14 5.31 -2.14 z M203.54999999999998 12.92 c0 1.6 0.49998 2.94 1.5 4.02 s2.28 1.62 3.84 1.62 c1.5333 0 2.8066 -0.53334 3.82 -1.6 s1.52 -2.4134 1.52 -4.04 c0 -1.6133 -0.5 -2.9566 -1.5 -4.03 s-2.2866 -1.61 -3.86 -1.61 c-1.52 0 -2.7866 0.53334 -3.8 1.6 s-1.52 2.4134 -1.52 4.04 z M222.95499999999998 5.84 l0 8.74 c0 1.16 0.32334 2.1134 0.97 2.86 s1.51 1.12 2.59 1.12 s1.9433 -0.37334 2.59 -1.12 s0.97 -1.7 0.97 -2.86 l0 -8.74 l1.92 0 l0 9.06 c0 0.97334 -0.23 1.8833 -0.69 2.73 s-1.1133 1.5133 -1.96 2 s-1.79 0.73 -2.83 0.73 c-1.6 0 -2.9134 -0.52334 -3.94 -1.57 s-1.54 -2.3434 -1.54 -3.89 l0 -9.06 l1.92 0 z M242.72 5.84 c1.3867 0 2.4734 0.34666 3.26 1.04 s1.18 1.6667 1.18 2.92 c0 0.94666 -0.32334 1.7733 -0.97 2.48 s-1.4767 1.1267 -2.49 1.26 l-0.02 0 l4.02 6.46 l-2.4 0 l-3.6 -6.24 l-2.14 0 l0 6.24 l-1.92 0 l0 -14.16 l5.08 0 z M242.16 12.08 c1 0 1.7433 -0.18336 2.23 -0.55002 s0.73 -0.94332 0.73 -1.73 c0 -1.52 -0.98666 -2.28 -2.96 -2.28 l-2.6 0 l0 4.56 l2.6 0 z M267.73 8.44 l-3.42 11.56 l-2.02 0 l-4.14 -14.16 l2 0 l3.12 11.32 l0.04 0 l3.34 -11.32 l2.2 0 l3.34 11.32 l0.04 0 l3.12 -11.32 l2 0 l-4.12 14.16 l-2.02 0 l-3.44 -11.56 l-0.04 0 z M287.155 5.84 l6.06 14.16 l-2.24 0 l-1.42 -3.5 l-6.74 0 l-1.4 3.5 l-2.24 0 l6.24 -14.16 l1.74 0 z M283.49499999999995 14.82 l5.36 0 l-2.64 -6.5 l-0.04 0 z M295.53999999999996 5.84 l3.86 6.22 l3.98 -6.22 l2.34 0 l-5.36 8.12 l0 6.04 l-1.92 0 l0 -6.04 l-5.36 -8.12 l2.46 0 z"></path></g>
			</g>
		</svg>
	